<mxfile host="65bd71144e">
    <diagram id="lE065ObyA_mzmsiGlNa_" name="Page-1">
        <mxGraphModel dx="1111" dy="596" grid="1" gridSize="10" guides="1" tooltips="1" connect="1" arrows="1" fold="1" page="1" pageScale="1" pageWidth="827" pageHeight="1169" math="0" shadow="0">
            <root>
                <mxCell id="0"/>
                <mxCell id="1" parent="0"/>
                <mxCell id="TRK05HxOvGJllQYXawu--2" value="" style="rounded=0;whiteSpace=wrap;html=1;" parent="1" vertex="1">
                    <mxGeometry x="116" y="70" width="338" height="600" as="geometry"/>
                </mxCell>
                <mxCell id="TRK05HxOvGJllQYXawu--3" value="" style="endArrow=none;html=1;rounded=0;" parent="1" edge="1">
                    <mxGeometry width="50" height="50" relative="1" as="geometry">
                        <mxPoint x="452" y="120" as="sourcePoint"/>
                        <mxPoint x="118" y="120" as="targetPoint"/>
                    </mxGeometry>
                </mxCell>
                <mxCell id="TRK05HxOvGJllQYXawu--4" value="Code&amp;nbsp; &amp;nbsp;unt" style="text;html=1;align=center;verticalAlign=middle;resizable=0;points=[];autosize=1;strokeColor=none;fillColor=none;fontSize=26;fontStyle=1" parent="1" vertex="1">
                    <mxGeometry x="205" y="78" width="140" height="40" as="geometry"/>
                </mxCell>
                <mxCell id="TRK05HxOvGJllQYXawu--5" value="" style="ellipse;whiteSpace=wrap;html=1;aspect=fixed;fontSize=22;" parent="1" vertex="1">
                    <mxGeometry x="410" y="80" width="30" height="30" as="geometry"/>
                </mxCell>
                <mxCell id="TRK05HxOvGJllQYXawu--10" value="Email" style="text;html=1;align=center;verticalAlign=middle;resizable=0;points=[];autosize=1;strokeColor=none;fillColor=none;fontSize=18;fontStyle=1" parent="1" vertex="1">
                    <mxGeometry x="170" y="190" width="60" height="30" as="geometry"/>
                </mxCell>
                <mxCell id="TRK05HxOvGJllQYXawu--11" value="Password" style="text;html=1;align=center;verticalAlign=middle;resizable=0;points=[];autosize=1;strokeColor=none;fillColor=none;fontSize=18;fontStyle=1" parent="1" vertex="1">
                    <mxGeometry x="175.49999999999994" y="280" width="100" height="30" as="geometry"/>
                </mxCell>
                <mxCell id="TRK05HxOvGJllQYXawu--15" value="" style="rounded=0;whiteSpace=wrap;html=1;fontSize=20;" parent="1" vertex="1">
                    <mxGeometry x="177" y="230" width="216" height="30" as="geometry"/>
                </mxCell>
                <mxCell id="TRK05HxOvGJllQYXawu--29" value="}{" style="text;html=1;align=center;verticalAlign=middle;resizable=0;points=[];autosize=1;strokeColor=none;fillColor=none;fontSize=26;fontStyle=1" parent="1" vertex="1">
                    <mxGeometry x="267.65999999999997" y="73" width="40" height="40" as="geometry"/>
                </mxCell>
                <mxCell id="TRK05HxOvGJllQYXawu--32" value="" style="rounded=0;whiteSpace=wrap;html=1;fontSize=26;" parent="1" vertex="1">
                    <mxGeometry x="242" y="390" width="84" height="40" as="geometry"/>
                </mxCell>
                <mxCell id="TRK05HxOvGJllQYXawu--31" value="Log in" style="text;html=1;align=center;verticalAlign=middle;resizable=0;points=[];autosize=1;strokeColor=none;fillColor=none;fontSize=18;" parent="1" vertex="1">
                    <mxGeometry x="256.5" y="395" width="60" height="30" as="geometry"/>
                </mxCell>
                <mxCell id="TRK05HxOvGJllQYXawu--34" value="Don't have an account?" style="text;html=1;align=center;verticalAlign=middle;resizable=0;points=[];autosize=1;strokeColor=none;fillColor=none;fontSize=11;" parent="1" vertex="1">
                    <mxGeometry x="217.49999999999997" y="570" width="130" height="20" as="geometry"/>
                </mxCell>
                <mxCell id="TRK05HxOvGJllQYXawu--35" value="Create new account" style="text;html=1;align=center;verticalAlign=middle;resizable=0;points=[];autosize=1;strokeColor=none;fillColor=none;fontSize=13;fontStyle=4" parent="1" vertex="1">
                    <mxGeometry x="217.49999999999997" y="600" width="130" height="20" as="geometry"/>
                </mxCell>
                <mxCell id="TRK05HxOvGJllQYXawu--36" value="Forgot password" style="text;html=1;align=center;verticalAlign=middle;resizable=0;points=[];autosize=1;strokeColor=none;fillColor=none;fontSize=13;fontStyle=4" parent="1" vertex="1">
                    <mxGeometry x="227.49999999999997" y="490" width="110" height="20" as="geometry"/>
                </mxCell>
                <mxCell id="2" value="&lt;p style=&quot;line-height: 0.7&quot;&gt;----&lt;br&gt;----&lt;br&gt;----&lt;/p&gt;" style="text;html=1;strokeColor=none;fillColor=none;align=center;verticalAlign=middle;whiteSpace=wrap;rounded=0;" vertex="1" parent="1">
                    <mxGeometry x="130" y="80" width="30" height="30" as="geometry"/>
                </mxCell>
                <mxCell id="7" value="" style="rounded=0;whiteSpace=wrap;html=1;fontSize=20;" vertex="1" parent="1">
                    <mxGeometry x="178.5" y="310" width="211" height="30" as="geometry"/>
                </mxCell>
            </root>
        </mxGraphModel>
    </diagram>
</mxfile>